<svg width="24" height="25" viewBox="0 0 24 25" fill="none" xmlns="http://www.w3.org/2000/svg">
<path d="M14.9997 19.1924C14.9997 20.8492 13.6566 22.1924 11.9997 22.1924C10.3429 22.1924 8.99972 20.8492 8.99972 19.1924M13.7962 6.43094C14.2317 5.98102 14.4997 5.368 14.4997 4.69238C14.4997 3.31167 13.3804 2.19238 11.9997 2.19238C10.619 2.19238 9.49972 3.31167 9.49972 4.69238C9.49972 5.368 9.76772 5.98102 10.2032 6.43094M17.9997 11.3924C17.9997 10.0133 17.3676 8.69062 16.2424 7.71543C15.1171 6.74024 13.591 6.19238 11.9997 6.19238C10.4084 6.19238 8.8823 6.74024 7.75708 7.71543C6.63186 8.69062 5.99972 10.0133 5.99972 11.3924C5.99972 13.6742 5.43385 15.343 4.72778 16.5371C3.92306 17.898 3.5207 18.5785 3.53659 18.741C3.55476 18.927 3.58824 18.9857 3.73906 19.096C3.87089 19.1924 4.53323 19.1924 5.85791 19.1924H18.1415C19.4662 19.1924 20.1286 19.1924 20.2604 19.096C20.4112 18.9857 20.4447 18.927 20.4629 18.741C20.4787 18.5785 20.0764 17.898 19.2717 16.5371C18.5656 15.343 17.9997 13.6742 17.9997 11.3924Z" stroke="#448C0E" stroke-width="2" stroke-linecap="round" stroke-linejoin="round"/>
</svg>
