<svg width="45" height="44" viewBox="0 0 45 44" fill="none" xmlns="http://www.w3.org/2000/svg">
<path d="M14.5243 20.1667H9.20758C8.18082 20.1667 7.66744 20.1667 7.27527 20.3665C6.9303 20.5423 6.64984 20.8227 6.47407 21.1677C6.27425 21.5599 6.27425 22.0732 6.27425 23.1V38.5M31.0243 20.1667H36.3409C37.3677 20.1667 37.8811 20.1667 38.2732 20.3665C38.6182 20.5423 38.8987 20.8227 39.0744 21.1677C39.2742 21.5599 39.2742 22.0732 39.2742 23.1V38.5M31.0243 38.5V11.3667C31.0243 9.31314 31.0243 8.28638 30.6246 7.50203C30.2731 6.81211 29.7121 6.25118 29.0222 5.89964C28.2379 5.5 27.2111 5.5 25.1576 5.5H20.3909C18.3374 5.5 17.3106 5.5 16.5263 5.89964C15.8364 6.25118 15.2754 6.81211 14.9239 7.50203C14.5243 8.28638 14.5243 9.31314 14.5243 11.3667V38.5M41.1076 38.5H4.44092M20.9409 12.8333H24.6076M20.9409 20.1667H24.6076M20.9409 27.5H24.6076" stroke="#448C0E" stroke-width="3" stroke-linecap="round" stroke-linejoin="round"/>
</svg>
