<svg width="45" height="45" viewBox="0 0 45 45" fill="none" xmlns="http://www.w3.org/2000/svg">
<path d="M16.9168 4.34619V8.01286M27.9168 4.34619V8.01286M16.9168 37.3462V41.0129M27.9168 37.3462V41.0129M37.0835 17.1795H40.7502M37.0835 26.3462H40.7502M4.0835 17.1795H7.75016M4.0835 26.3462H7.75016M16.5502 37.3462H28.2835C31.3638 37.3462 32.9039 37.3462 34.0804 36.7467C35.1153 36.2194 35.9567 35.378 36.484 34.3431C37.0835 33.1666 37.0835 31.6265 37.0835 28.5462V16.8129C37.0835 13.7326 37.0835 12.1924 36.484 11.0159C35.9567 9.98102 35.1153 9.13963 34.0804 8.61232C32.9039 8.01286 31.3638 8.01286 28.2835 8.01286H16.5502C13.4699 8.01286 11.9297 8.01286 10.7532 8.61232C9.71832 9.13963 8.87693 9.98102 8.34963 11.0159C7.75016 12.1924 7.75016 13.7326 7.75016 16.8129V28.5462C7.75016 31.6265 7.75016 33.1666 8.34963 34.3431C8.87693 35.378 9.71832 36.2194 10.7532 36.7467C11.9297 37.3462 13.4699 37.3462 16.5502 37.3462ZM19.8502 28.1795H24.9835C26.0103 28.1795 26.5236 28.1795 26.9158 27.9797C27.2608 27.8039 27.5412 27.5235 27.717 27.1785C27.9168 26.7863 27.9168 26.273 27.9168 25.2462V20.1129C27.9168 19.0861 27.9168 18.5727 27.717 18.1805C27.5412 17.8356 27.2608 17.5551 26.9158 17.3793C26.5236 17.1795 26.0103 17.1795 24.9835 17.1795H19.8502C18.8234 17.1795 18.31 17.1795 17.9178 17.3793C17.5729 17.5551 17.2924 17.8356 17.1167 18.1805C16.9168 18.5727 16.9168 19.0861 16.9168 20.1129V25.2462C16.9168 26.273 16.9168 26.7863 17.1167 27.1785C17.2924 27.5235 17.5729 27.8039 17.9178 27.9797C18.31 28.1795 18.8234 28.1795 19.8502 28.1795Z" stroke="#448C0E" stroke-width="3" stroke-linecap="round" stroke-linejoin="round"/>
</svg>
