<svg width="29" height="29" viewBox="0 0 29 29" fill="none" xmlns="http://www.w3.org/2000/svg">
<path d="M21.9173 12.3934L17.2507 7.72675M3.83398 25.8101L7.78241 25.3714C8.26482 25.3178 8.50602 25.291 8.73147 25.218C8.93149 25.1532 9.12184 25.0618 9.29735 24.946C9.49518 24.8156 9.66679 24.644 10.01 24.3007L25.4173 8.89342C26.706 7.60476 26.706 5.51542 25.4173 4.22675C24.1287 2.93809 22.0393 2.93809 20.7507 4.22675L5.34333 19.6341C5.00012 19.9773 4.82852 20.1489 4.69806 20.3467C4.58232 20.5222 4.49084 20.7126 4.42608 20.9126C4.3531 21.1381 4.3263 21.3793 4.2727 21.8617L3.83398 25.8101Z" stroke="#A4A4A4" stroke-width="2" stroke-linecap="round" stroke-linejoin="round"/>
</svg>
