<svg width="25" height="25" viewBox="0 0 25 25" fill="none" xmlns="http://www.w3.org/2000/svg">
<path d="M3.06368 13.0437C2.92749 12.8281 2.8594 12.7203 2.82128 12.554C2.79265 12.4291 2.79265 12.2321 2.82128 12.1072C2.8594 11.9408 2.92749 11.833 3.06368 11.6174C4.18908 9.83541 7.53895 5.33057 12.644 5.33057C17.749 5.33057 21.0988 9.83541 22.2242 11.6174C22.3604 11.833 22.4285 11.9408 22.4666 12.1072C22.4953 12.2321 22.4953 12.4291 22.4666 12.554C22.4285 12.7203 22.3604 12.8281 22.2242 13.0437C21.0988 14.8257 17.749 19.3306 12.644 19.3306C7.53895 19.3306 4.18908 14.8257 3.06368 13.0437Z" stroke="#E4E2E2" stroke-width="2" stroke-linecap="round" stroke-linejoin="round"/>
<path d="M12.644 15.3306C14.3008 15.3306 15.644 13.9874 15.644 12.3306C15.644 10.6737 14.3008 9.33057 12.644 9.33057C10.9871 9.33057 9.64396 10.6737 9.64396 12.3306C9.64396 13.9874 10.9871 15.3306 12.644 15.3306Z" stroke="#E4E2E2" stroke-width="2" stroke-linecap="round" stroke-linejoin="round"/>
</svg>
