<svg width="25" height="25" viewBox="0 0 25 25" fill="none" xmlns="http://www.w3.org/2000/svg">
<path d="M13.166 7.19238L12.0505 4.9613C11.7294 4.31919 11.5689 3.99811 11.3294 3.76355C11.1176 3.55611 10.8623 3.39836 10.5821 3.30169C10.2652 3.19238 9.90622 3.19238 9.18831 3.19238H5.36602C4.24591 3.19238 3.68586 3.19238 3.25803 3.41037C2.88171 3.60212 2.57575 3.90808 2.384 4.2844C2.16602 4.71223 2.16602 5.27228 2.16602 6.39238V7.19238M2.16602 7.19238H17.366C19.0462 7.19238 19.8863 7.19238 20.528 7.51936C21.0925 7.80698 21.5514 8.26593 21.839 8.83041C22.166 9.47215 22.166 10.3122 22.166 11.9924V16.3924C22.166 18.0725 22.166 18.9126 21.839 19.5544C21.5514 20.1188 21.0925 20.5778 20.528 20.8654C19.8863 21.1924 19.0462 21.1924 17.366 21.1924H6.96602C5.28586 21.1924 4.44578 21.1924 3.80404 20.8654C3.23956 20.5778 2.78062 20.1188 2.493 19.5544C2.16602 18.9126 2.16602 18.0725 2.16602 16.3924V7.19238Z" stroke="#448C0E" stroke-width="2" stroke-linecap="round" stroke-linejoin="round"/>
</svg>
