<svg width="25" height="25" viewBox="0 0 25 25" fill="none" xmlns="http://www.w3.org/2000/svg">
<path d="M22.583 8.73429V12.7343M10.833 6.23429H7.38301C5.70285 6.23429 4.86277 6.23429 4.22103 6.56127C3.65655 6.84889 3.19761 7.30783 2.90999 7.87232C2.58301 8.51405 2.58301 9.35413 2.58301 11.0343L2.58301 12.2343C2.58301 13.1662 2.58301 13.6321 2.73525 13.9997C2.93824 14.4897 3.32759 14.8791 3.81764 15.082C4.18518 15.2343 4.65113 15.2343 5.58301 15.2343V19.4843C5.58301 19.7165 5.58301 19.8325 5.59264 19.9303C5.68616 20.8799 6.43742 21.6311 7.38698 21.7247C7.48476 21.7343 7.60084 21.7343 7.83301 21.7343C8.06518 21.7343 8.18126 21.7343 8.27904 21.7247C9.2286 21.6311 9.97986 20.8799 10.0734 19.9303C10.083 19.8325 10.083 19.7165 10.083 19.4843V15.2343H10.833C12.5994 15.2343 14.7603 16.1812 16.4273 17.0899C17.3998 17.6201 17.8861 17.8852 18.2046 17.8462C18.4999 17.81 18.7232 17.6774 18.8963 17.4354C19.083 17.1744 19.083 16.6523 19.083 15.608V5.86057C19.083 4.81628 19.083 4.29414 18.8963 4.03318C18.7232 3.79119 18.4999 3.65859 18.2046 3.62242C17.8861 3.58341 17.3998 3.84849 16.4273 4.37864C14.7603 5.2874 12.5994 6.23429 10.833 6.23429Z" stroke="#448C0E" stroke-width="2" stroke-linecap="round" stroke-linejoin="round"/>
</svg>
