<svg width="25" height="25" viewBox="0 0 25 25" fill="none" xmlns="http://www.w3.org/2000/svg">
<path d="M17.918 10.3306V8.33057C17.918 5.56914 15.6794 3.33057 12.918 3.33057C10.1565 3.33057 7.91797 5.56914 7.91797 8.33057V10.3306M12.918 14.8306V16.8306M9.71797 21.3306H16.118C17.7981 21.3306 18.6382 21.3306 19.2799 21.0036C19.8444 20.716 20.3034 20.257 20.591 19.6925C20.918 19.0508 20.918 18.2107 20.918 16.5306V15.1306C20.918 13.4504 20.918 12.6103 20.591 11.9686C20.3034 11.4041 19.8444 10.9452 19.2799 10.6575C18.6382 10.3306 17.7981 10.3306 16.118 10.3306H9.71797C8.03781 10.3306 7.19773 10.3306 6.556 10.6575C5.99151 10.9452 5.53257 11.4041 5.24495 11.9686C4.91797 12.6103 4.91797 13.4504 4.91797 15.1306V16.5306C4.91797 18.2107 4.91797 19.0508 5.24495 19.6925C5.53257 20.257 5.99151 20.716 6.556 21.0036C7.19773 21.3306 8.03781 21.3306 9.71797 21.3306Z" stroke="#E4E2E2" stroke-width="2" stroke-linecap="round" stroke-linejoin="round"/>
</svg>
