<svg width="25" height="25" viewBox="0 0 25 25" fill="none" xmlns="http://www.w3.org/2000/svg">
<path d="M16.3599 17.658L21.3599 12.658M21.3599 12.658L16.3599 7.65802M21.3599 12.658H9.35986M12.3599 17.658C12.3599 17.9536 12.3599 18.1014 12.3489 18.2294C12.2347 19.56 11.2547 20.6549 9.9449 20.9153C9.81889 20.9404 9.67188 20.9567 9.37821 20.9893L8.35681 21.1028C6.82234 21.2733 6.05507 21.3586 5.44553 21.1635C4.6328 20.9034 3.96928 20.3095 3.62104 19.5305C3.35986 18.9462 3.35986 18.1743 3.35986 16.6303V8.68572C3.35986 7.14179 3.35986 6.36982 3.62104 5.78554C3.96928 5.0065 4.6328 4.41262 5.44553 4.15255C6.05508 3.95749 6.82232 4.04274 8.3568 4.21324L9.37821 4.32673C9.67198 4.35937 9.81887 4.37569 9.9449 4.40075C11.2547 4.66118 12.2347 5.75606 12.3489 7.08663C12.3599 7.21465 12.3599 7.36244 12.3599 7.65802" stroke="#A4A4A4" stroke-width="2" stroke-linecap="round" stroke-linejoin="round"/>
</svg>
