<svg width="45" height="45" viewBox="0 0 45 45" fill="none" xmlns="http://www.w3.org/2000/svg">
<path d="M11.1478 11.4061L19.3978 19.6561M11.1478 11.4061H5.64779L3.81445 5.90609L5.64779 4.07275L11.1478 5.90609V11.4061ZM35.4559 5.43128L30.6386 10.2486C29.9126 10.9746 29.5496 11.3376 29.4136 11.7562C29.2939 12.1244 29.2939 12.5211 29.4136 12.8893C29.5496 13.3079 29.9126 13.6709 30.6386 14.3969L31.0736 14.8319C31.7996 15.5579 32.1627 15.921 32.5813 16.057C32.9495 16.1766 33.3461 16.1766 33.7143 16.057C34.1329 15.921 34.4959 15.5579 35.222 14.8319L39.7281 10.3257C40.2135 11.5067 40.4811 12.8001 40.4811 14.1561C40.4811 19.725 35.9667 24.2394 30.3978 24.2394C29.7264 24.2394 29.0703 24.1738 28.4357 24.0486C27.5444 23.8729 27.0988 23.785 26.8286 23.8119C26.5414 23.8405 26.3999 23.8836 26.1454 24.0198C25.906 24.1479 25.6659 24.388 25.1857 24.8682L12.0645 37.9894C10.5457 39.5082 8.08324 39.5082 6.56446 37.9894C5.04567 36.4706 5.04567 34.0082 6.56446 32.4894L19.6857 19.3682C20.1659 18.888 20.406 18.6479 20.5341 18.4085C20.6703 18.154 20.7134 18.0124 20.742 17.7252C20.7689 17.4551 20.681 17.0095 20.5052 16.1182C20.3801 15.4835 20.3145 14.8275 20.3145 14.1561C20.3145 8.58722 24.8289 4.07275 30.3978 4.07275C32.2412 4.07275 33.9691 4.56743 35.4559 5.43128ZM22.1479 27.906L32.2311 37.9892C33.7499 39.508 36.2123 39.508 37.7311 37.9892C39.2499 36.4704 39.2499 34.008 37.7311 32.4892L29.4359 24.1941C28.8486 24.1386 28.2761 24.0326 27.7226 23.8807C27.0093 23.6849 26.2269 23.827 25.7038 24.35L22.1479 27.906Z" stroke="#448C0E" stroke-width="3" stroke-linecap="round" stroke-linejoin="round"/>
</svg>
