<svg width="45" height="45" viewBox="0 0 45 45" fill="none" xmlns="http://www.w3.org/2000/svg">
<path d="M31.9396 5.35661C30.2535 3.96985 28.2791 2.97699 26.1603 2.45049C24.0416 1.92398 21.8321 1.8771 19.693 2.31327C16.8447 2.88861 14.2314 4.29708 12.1849 6.35996C10.1383 8.42283 8.75066 11.0472 8.19797 13.8999C7.79435 16.0389 7.86769 18.2406 8.41276 20.348C8.95783 22.4554 9.9612 24.4166 11.3513 26.0916C12.6414 27.5474 13.3809 29.4091 13.4413 31.3533V36.8533C13.4413 38.312 14.0208 39.7109 15.0522 40.7424C16.0837 41.7738 17.4826 42.3533 18.9413 42.3533H26.2746C27.7333 42.3533 29.1323 41.7738 30.1637 40.7424C31.1952 39.7109 31.7746 38.312 31.7746 36.8533V31.7016C31.8362 29.5551 32.6248 27.4931 34.0113 25.8533C36.4407 22.848 37.5859 19.0054 37.1979 15.1606C36.81 11.3157 34.9204 7.77934 31.9396 5.31994V5.35661ZM28.108 36.8533C28.108 37.3395 27.9148 37.8058 27.571 38.1496C27.2272 38.4935 26.7609 38.6866 26.2746 38.6866H18.9413C18.4551 38.6866 17.9888 38.4935 17.6449 38.1496C17.3011 37.8058 17.108 37.3395 17.108 36.8533V35.0199H28.108V36.8533ZM31.1696 23.5799C29.3262 25.7664 28.2507 28.497 28.108 31.3533H24.4413V25.8533C24.4413 25.367 24.2481 24.9007 23.9043 24.5569C23.5605 24.2131 23.0942 24.0199 22.608 24.0199C22.1217 24.0199 21.6554 24.2131 21.3116 24.5569C20.9678 24.9007 20.7746 25.367 20.7746 25.8533V31.3533H17.108C17.0596 28.5448 16.0207 25.8437 14.1746 23.7266C12.9566 22.2673 12.1376 20.5172 11.7974 18.6471C11.4571 16.7769 11.6073 14.8506 12.2333 13.0557C12.8593 11.2609 13.9396 9.65897 15.3691 8.40604C16.7985 7.15311 18.5283 6.29197 20.3896 5.90661C21.9893 5.57724 23.6423 5.60822 25.2285 5.9973C26.8147 6.38638 28.2944 7.1238 29.5601 8.15602C30.8258 9.18824 31.8457 10.4894 32.5459 11.9649C33.246 13.4404 33.6089 15.0534 33.608 16.6866C33.6215 19.198 32.7593 21.6356 31.1696 23.5799Z" fill="#448C0E"/>
</svg>
