<svg width="45" height="45" viewBox="0 0 45 45" fill="none" xmlns="http://www.w3.org/2000/svg">
<path d="M33.381 29.714C36.0502 31.0548 38.3386 33.2066 40.009 35.8973C40.3398 36.4302 40.5052 36.6966 40.5623 37.0655C40.6786 37.8153 40.1659 38.737 39.4676 39.0337C39.124 39.1797 38.7375 39.1797 37.9644 39.1797M29.7144 21.8221C32.4309 20.4722 34.2977 17.6689 34.2977 14.4297C34.2977 11.1904 32.4309 8.38722 29.7144 7.03725M26.0477 14.4297C26.0477 18.986 22.3541 22.6797 17.7977 22.6797C13.2414 22.6797 9.54772 18.986 9.54772 14.4297C9.54772 9.87334 13.2414 6.17969 17.7977 6.17969C22.3541 6.17969 26.0477 9.87334 26.0477 14.4297ZM5.07297 35.4C7.99587 31.0114 12.6082 28.1797 17.7977 28.1797C22.9872 28.1797 27.5996 31.0114 30.5225 35.4C31.1628 36.3614 31.4829 36.8421 31.4461 37.4562C31.4174 37.9343 31.104 38.5197 30.7219 38.8086C30.2312 39.1797 29.5564 39.1797 28.2067 39.1797H7.3887C6.03903 39.1797 5.36419 39.1797 4.87352 38.8086C4.49147 38.5197 4.17804 37.9343 4.14934 37.4562C4.11248 36.8421 4.43265 36.3614 5.07297 35.4Z" stroke="#448C0E" stroke-width="3" stroke-linecap="round" stroke-linejoin="round"/>
</svg>
