<svg width="25" height="25" viewBox="0 0 25 25" fill="none" xmlns="http://www.w3.org/2000/svg">
<path d="M20.918 21.2354C20.918 19.8398 20.918 19.142 20.7457 18.5742C20.3579 17.2958 19.3575 16.2954 18.0791 15.9076C17.5113 15.7353 16.8135 15.7353 15.418 15.7353H10.418C9.02241 15.7353 8.32462 15.7353 7.75683 15.9076C6.47842 16.2954 5.47801 17.2958 5.09021 18.5742C4.91797 19.142 4.91797 19.8398 4.91797 21.2354M17.418 7.73535C17.418 10.2206 15.4033 12.2354 12.918 12.2354C10.4327 12.2354 8.41797 10.2206 8.41797 7.73535C8.41797 5.25007 10.4327 3.23535 12.918 3.23535C15.4033 3.23535 17.418 5.25007 17.418 7.73535Z" stroke="#E4E2E2" stroke-width="2" stroke-linecap="round" stroke-linejoin="round"/>
</svg>
